<?xml version="1.0" encoding="UTF-8"?>
<svg xmlns="http://www.w3.org/2000/svg" xmlns:xlink="http://www.w3.org/1999/xlink" fill-opacity="1" color-rendering="auto" color-interpolation="auto" stroke="black" text-rendering="auto" stroke-linecap="square" width="341" stroke-miterlimit="10" stroke-opacity="1" shape-rendering="auto" fill="black" stroke-dasharray="none" font-weight="normal" stroke-width="1" height="348" font-family="'Dialog'" font-style="normal" stroke-linejoin="miter" font-size="12" stroke-dashoffset="0" image-rendering="auto">
  <!--Generated by ySVG 2.5-->
  <defs id="genericDefs"/>
  <g>
    <defs id="defs1">
      <clipPath clipPathUnits="userSpaceOnUse" id="clipPath1">
        <path d="M0 0 L341 0 L341 348 L0 348 L0 0 Z"/>
      </clipPath>
      <clipPath clipPathUnits="userSpaceOnUse" id="clipPath2">
        <path d="M209 73 L550 73 L550 421 L209 421 L209 73 Z"/>
      </clipPath>
    </defs>
    <g fill="white" text-rendering="geometricPrecision" shape-rendering="geometricPrecision" transform="translate(-209,-73)" stroke="white">
      <rect x="209" width="341" height="348" y="73" clip-path="url(#clipPath2)" stroke="none"/>
    </g>
    <g text-rendering="geometricPrecision" stroke-miterlimit="1.45" shape-rendering="geometricPrecision" transform="matrix(1,0,0,1,-209,-73)" stroke-linecap="butt">
      <path fill="none" d="M380 140 L380 147.502 L374 144.502 L381.5 154.502 L389 144.502 L383 147.502 L383 140 Z" clip-path="url(#clipPath2)"/>
      <text x="333.5" xml:space="preserve" y="149.6934" font-family="sans-serif" clip-path="url(#clipPath2)" stroke="none">实例化</text>
    </g>
    <g text-rendering="geometricPrecision" stroke-miterlimit="1.45" shape-rendering="geometricPrecision" transform="matrix(1,0,0,1,-209,-73)" stroke-linecap="butt">
      <path fill="none" d="M319 277.0083 L319 336" clip-path="url(#clipPath2)"/>
    </g>
    <g text-rendering="geometricPrecision" stroke-miterlimit="1.45" shape-rendering="geometricPrecision" transform="matrix(1,0,0,1,-209,-73)" stroke-linecap="butt">
      <path d="M319 273.0083 L313 281.0083 L319 278.0083 L325 281.0083 Z" clip-path="url(#clipPath2)" stroke="none"/>
      <path d="M319 340 L325 332 L319 335 L313 332 Z" clip-path="url(#clipPath2)" stroke="none"/>
      <path fill="none" d="M349 277.0078 L349 336" clip-path="url(#clipPath2)"/>
      <path d="M349 273.0078 L343 281.0078 L349 278.0078 L355 281.0078 Z" clip-path="url(#clipPath2)" stroke="none"/>
      <path d="M349 340 L355 332 L349 335 L343 332 Z" clip-path="url(#clipPath2)" stroke="none"/>
      <path fill="none" d="M379 277.0239 L379 336" clip-path="url(#clipPath2)"/>
      <path d="M379 273.0239 L373 281.0239 L379 278.0239 L385 281.0239 Z" clip-path="url(#clipPath2)" stroke="none"/>
      <path d="M379 340 L385 332 L379 335 L373 332 Z" clip-path="url(#clipPath2)" stroke="none"/>
      <path fill="none" d="M438.0413 223.541 L438.0413 240.9609" clip-path="url(#clipPath2)"/>
      <path d="M438.0413 219.541 L432.0413 227.541 L438.0413 224.541 L444.0413 227.541 Z" clip-path="url(#clipPath2)" stroke="none"/>
      <path d="M438.0413 244.9609 L444.0413 236.9609 L438.0413 239.9609 L432.0413 236.9609 Z" clip-path="url(#clipPath2)" stroke="none"/>
      <path fill="none" d="M317.8121 223.5496 L317.8121 240.9922" clip-path="url(#clipPath2)"/>
      <path d="M317.8121 219.5496 L311.8121 227.5496 L317.8121 224.5496 L323.8121 227.5496 Z" clip-path="url(#clipPath2)" stroke="none"/>
      <path d="M317.8121 244.9922 L323.8121 236.9922 L317.8121 239.9922 L311.8121 236.9922 Z" clip-path="url(#clipPath2)" stroke="none"/>
      <path fill="none" d="M366.7522 223.5016 L366.7522 240.9766" clip-path="url(#clipPath2)"/>
      <path d="M366.7522 219.5016 L360.7522 227.5016 L366.7522 224.5016 L372.7522 227.5016 Z" clip-path="url(#clipPath2)" stroke="none"/>
      <path d="M366.7522 244.9766 L372.7522 236.9766 L366.7522 239.9766 L360.7522 236.9766 Z" clip-path="url(#clipPath2)" stroke="none"/>
      <path fill="none" d="M409 277.0083 L409 336" clip-path="url(#clipPath2)"/>
      <path d="M409 273.0083 L403 281.0083 L409 278.0083 L415 281.0083 Z" clip-path="url(#clipPath2)" stroke="none"/>
      <path d="M409 340 L415 332 L409 335 L403 332 Z" clip-path="url(#clipPath2)" stroke="none"/>
      <path fill="none" d="M439 277.0396 L439 336" clip-path="url(#clipPath2)"/>
      <path d="M439 273.0396 L433 281.0396 L439 278.0396 L445 281.0396 Z" clip-path="url(#clipPath2)" stroke="none"/>
      <path d="M439 340 L445 332 L439 335 L433 332 Z" clip-path="url(#clipPath2)" stroke="none"/>
    </g>
    <g stroke-linecap="round" transform="matrix(1,0,0,1,-209,-73)" stroke-dashoffset="2" text-rendering="geometricPrecision" shape-rendering="geometricPrecision" stroke-dasharray="0,8" stroke-width="2" stroke-miterlimit="1.45">
      <path fill="none" d="M254.5049 287.5 L504.5229 287.5" clip-path="url(#clipPath2)"/>
    </g>
    <g text-rendering="geometricPrecision" stroke-miterlimit="1.45" shape-rendering="geometricPrecision" font-family="sans-serif" transform="matrix(1,0,0,1,-209,-73)" stroke-linecap="butt">
      <text x="313" xml:space="preserve" y="183.9023" clip-path="url(#clipPath2)" stroke="none">对</text>
      <text x="313" xml:space="preserve" y="198.0352" clip-path="url(#clipPath2)" stroke="none">象</text>
      <text x="315.2061" xml:space="preserve" y="212.168" clip-path="url(#clipPath2)" stroke="none">1</text>
      <rect fill="none" x="304" width="30" height="52" y="167.5" clip-path="url(#clipPath2)"/>
      <text x="360" xml:space="preserve" y="183.9023" clip-path="url(#clipPath2)" stroke="none">对</text>
      <text x="360" xml:space="preserve" y="198.0352" clip-path="url(#clipPath2)" stroke="none">象</text>
      <text x="362.2061" xml:space="preserve" y="212.168" clip-path="url(#clipPath2)" stroke="none">2</text>
      <rect fill="none" x="351" width="30" height="52" y="167.5" clip-path="url(#clipPath2)"/>
      <text x="434" xml:space="preserve" y="183.9023" clip-path="url(#clipPath2)" stroke="none">对</text>
      <text x="434" xml:space="preserve" y="198.0352" clip-path="url(#clipPath2)" stroke="none">象</text>
      <text x="436.2764" xml:space="preserve" y="212.168" clip-path="url(#clipPath2)" stroke="none">n</text>
      <rect fill="none" x="425" width="30" height="52" y="167.5" clip-path="url(#clipPath2)"/>
      <text x="399.3047" xml:space="preserve" y="194.0352" clip-path="url(#clipPath2)" stroke="none">...</text>
      <text x="372.8604" xml:space="preserve" y="120.5352" clip-path="url(#clipPath2)" stroke="none">类A</text>
      <rect fill="none" x="350" width="66" height="26" y="103" clip-path="url(#clipPath2)"/>
      <text x="276.5" xml:space="preserve" y="396.9688" clip-path="url(#clipPath2)" stroke="none">表A</text>
      <rect fill="none" x="270.5" width="208" height="79" y="326.5" clip-path="url(#clipPath2)"/>
      <text x="313" xml:space="preserve" y="367.4688" clip-path="url(#clipPath2)" stroke="none">行</text>
      <text x="315.2061" xml:space="preserve" y="381.6016" clip-path="url(#clipPath2)" stroke="none">1</text>
      <rect fill="none" x="304" width="30" height="60" y="340" clip-path="url(#clipPath2)"/>
      <text x="343" xml:space="preserve" y="367.4688" clip-path="url(#clipPath2)" stroke="none">行</text>
      <text x="345.2061" xml:space="preserve" y="381.6016" clip-path="url(#clipPath2)" stroke="none">2</text>
      <rect fill="none" x="334" width="30" height="60" y="340" clip-path="url(#clipPath2)"/>
      <text x="373" xml:space="preserve" y="367.4688" clip-path="url(#clipPath2)" stroke="none">行</text>
      <text x="375.2061" xml:space="preserve" y="381.6016" clip-path="url(#clipPath2)" stroke="none">3</text>
      <rect fill="none" x="364" width="30" height="60" y="340" clip-path="url(#clipPath2)"/>
      <text x="353" xml:space="preserve" y="263.5352" clip-path="url(#clipPath2)" stroke="none">数据接口</text>
      <rect fill="none" x="301" width="152" height="28" y="245" clip-path="url(#clipPath2)"/>
      <text x="403.3047" xml:space="preserve" y="374.5352" clip-path="url(#clipPath2)" stroke="none">...</text>
      <rect fill="none" x="394" width="30" height="60" y="340" clip-path="url(#clipPath2)"/>
      <text x="433" xml:space="preserve" y="367.4688" clip-path="url(#clipPath2)" stroke="none">行</text>
      <text x="435.2764" xml:space="preserve" y="381.6016" clip-path="url(#clipPath2)" stroke="none">n</text>
      <rect fill="none" x="424" width="30" height="60" y="340" clip-path="url(#clipPath2)"/>
      <text x="260.5" xml:space="preserve" y="225.5703" clip-path="url(#clipPath2)" stroke="none">内</text>
      <text x="260.5" xml:space="preserve" y="239.7031" clip-path="url(#clipPath2)" stroke="none">存</text>
      <text x="260.5" xml:space="preserve" y="253.8359" clip-path="url(#clipPath2)" stroke="none">空</text>
      <text x="260.5" xml:space="preserve" y="267.9688" clip-path="url(#clipPath2)" stroke="none">间</text>
      <text x="486.5" xml:space="preserve" y="316.1016" clip-path="url(#clipPath2)" stroke="none">数</text>
      <text x="486.5" xml:space="preserve" y="330.2344" clip-path="url(#clipPath2)" stroke="none">据</text>
      <text x="486.5" xml:space="preserve" y="344.3672" clip-path="url(#clipPath2)" stroke="none">库</text>
    </g>
    <g fill="white" text-rendering="geometricPrecision" shape-rendering="geometricPrecision" transform="matrix(1,0,0,1,-209,-73)" stroke="white">
      <rect x="300" width="152" height="28" y="292" clip-path="url(#clipPath2)" stroke="none"/>
    </g>
    <g text-rendering="geometricPrecision" stroke-miterlimit="1.45" shape-rendering="geometricPrecision" font-family="sans-serif" transform="matrix(1,0,0,1,-209,-73)" stroke-linecap="butt">
      <text x="355.8613" xml:space="preserve" y="310.5352" clip-path="url(#clipPath2)" stroke="none">RDBMS</text>
      <rect fill="none" x="300" width="152" height="28" y="292" clip-path="url(#clipPath2)"/>
    </g>
  </g>
</svg>
