<?xml version="1.0" encoding="UTF-8"?>
<svg xmlns="http://www.w3.org/2000/svg" xmlns:xlink="http://www.w3.org/1999/xlink" fill-opacity="1" color-rendering="auto" color-interpolation="auto" stroke="black" text-rendering="auto" stroke-linecap="square" width="531" stroke-miterlimit="10" stroke-opacity="1" shape-rendering="auto" fill="black" stroke-dasharray="none" font-weight="normal" stroke-width="1" height="283" font-family="'Dialog'" font-style="normal" stroke-linejoin="miter" font-size="12" stroke-dashoffset="0" image-rendering="auto">
  <!--Generated by ySVG 2.5-->
  <defs id="genericDefs"/>
  <g>
    <g fill="white" text-rendering="geometricPrecision" shape-rendering="geometricPrecision" transform="translate(-1,-111)" stroke="white">
      <rect x="1" width="531" height="283" y="111" clip-path="url(#clipPath2)" stroke="none"/>
    </g>
    <g text-rendering="geometricPrecision" stroke-miterlimit="1.45" shape-rendering="geometricPrecision" font-family="sans-serif" transform="matrix(1,0,0,1,-1,-111)" stroke-linecap="butt">
      <text x="223.5" xml:space="preserve" y="143.6016" clip-path="url(#clipPath2)" stroke="none">遥感信息处理进程</text>
      <rect fill="none" x="165" width="213" height="253" y="126" clip-path="url(#clipPath2)"/>
      <text x="264.5" xml:space="preserve" y="356.5352" clip-path="url(#clipPath2)" stroke="none">数据</text>
      <rect fill="none" x="187" width="179" height="38" y="333" clip-path="url(#clipPath2)"/>
    </g>
    <g shape-rendering="geometricPrecision" text-rendering="geometricPrecision" transform="matrix(1,0,0,1,445.492,119.4778)">
      <g clip-path="url(#clipPath3)">
        <svg xml:space="preserve" opacity="1" writing-mode="lr-tb" stop-color="rgb(0, 0, 0)" shape-rendering="auto" glyph-orientation-horizontal="0deg" color-profile="auto" lighting-color="rgb(255, 255, 255)" color="rgb(0, 0, 0)" font-weight="400" alignment-baseline="auto" font-style="normal" version="1.1" color-interpolation-filters="linearrgb" text-anchor="start" stroke-linecap="butt" color-interpolation="srgb" font-variant="normal" word-spacing="normal" fill-opacity="1" text-rendering="auto" clip-path="none" text-decoration="none" letter-spacing="normal" viewBox="-1 -0.044 71 43" glyph-orientation-vertical="auto" display="inline" font-size-adjust="none" overflow="hidden" fill="rgb(0, 0, 0)" font-stretch="normal" stroke-dasharray="none" stroke-miterlimit="4" stop-opacity="1" color-rendering="auto" font-size="12" pointer-events="visiblepainted" mask="none" direction="ltr" baseline-shift="baseline" enable-background="new -1 -0.044 71 43" fill-rule="nonzero" image-rendering="auto" stroke-dashoffset="0" width="71px" marker-end="none" clip="auto" cursor="auto" stroke="none" filter="none" visibility="visible" kerning="auto" stroke-width="1" font-family="&quot;Arial&quot;,&quot;Helvetica&quot;,sans-serif" flood-opacity="1" clip-rule="nonzero" src="none" height="43px" unicode-bidi="normal" stroke-linejoin="miter" stroke-opacity="1" flood-color="rgb(0, 0, 0)" dominant-baseline="auto" marker-start="none" x="0px" marker-mid="none" y="0px">
<defs>
<clipPath clipPathUnits="userSpaceOnUse" id="clipPath1">
              <path d="M0 0 L531 0 L531 283 L0 283 L0 0 Z"/>
            </clipPath>
            <clipPath clipPathUnits="userSpaceOnUse" id="clipPath2">
              <path d="M1 111 L532 111 L532 394 L1 394 L1 111 Z"/>
            </clipPath>
            <clipPath clipPathUnits="userSpaceOnUse" id="clipPath3">
              <path d="M-445.492 -119.4779 L85.508 -119.4779 L85.508 163.5222 L-445.492 163.5222 L-445.492 -119.4779 Z"/>
            </clipPath>
            <clipPath clipPathUnits="userSpaceOnUse" id="clipPath4">
              <path d="M-20.1525 -107.5597 L510.8475 -107.5597 L510.8475 175.4403 L-20.1525 175.4403 L-20.1525 -107.5597 Z"/>
            </clipPath>
          </defs>
<linearGradient gradientTransform="matrix(1 0 0 1 -760.5996 -1807.4023)" x1="807.2808" x2="783.5425" gradientUnits="userSpaceOnUse" y1="1849.3247" y2="1849.3247" id="svg1.SVGID_1_">
	<stop offset="0" style="stop-color:#4D4D4D"/>
	<stop offset="1" style="stop-color:#999999"/>
</linearGradient>
<path fill="url(#svg1.SVGID_1_)" d="M46.527,40.407c0,0.965-6.758,1.404-12.371,1.404c-3.889,0-10.914-0.349-11.367-1.268  c0,0.446,0,1.502,0,1.661c0,0.726,4.803,1.233,11.357,1.233c6.554,0,12.381-0.643,12.381-1.36  C46.527,41.921,46.527,40.87,46.527,40.407z" display="none"/>
<path fill="#808080" d="M34.658,39.2c6.556,0,11.869,0.584,11.869,1.307c0,0.721-5.313,1.42-11.869,1.42  c-6.701,0-11.869-0.697-11.869-1.42S28.104,39.2,34.658,39.2z" display="none"/>
<linearGradient gradientTransform="matrix(1 0 0 1 -760.5996 -1807.4023)" x1="797.8442" x2="792.8472" gradientUnits="userSpaceOnUse" y1="1843.356" y2="1843.356" id="svg1.SVGID_2_">
	<stop offset="0" style="stop-color:#999999"/>
	<stop offset="0.0417" style="stop-color:#8D8D8D"/>
	<stop offset="0.1617" style="stop-color:#717171"/>
	<stop offset="0.2821" style="stop-color:#5D5D5D"/>
	<stop offset="0.4021" style="stop-color:#515151"/>
	<stop offset="0.5212" style="stop-color:#4D4D4D"/>
	<stop offset="0.6202" style="stop-color:#565656"/>
	<stop offset="0.7817" style="stop-color:#6E6E6E"/>
	<stop offset="0.9844" style="stop-color:#969696"/>
	<stop offset="1" style="stop-color:#999999"/>
</linearGradient>
<path fill="url(#svg1.SVGID_2_)" d="M37.212,40.79c0,0-1.477,0.096-2.498,0.096s-2.499-0.096-2.499-0.096v-9.768h4.997  V40.79z" display="none"/>
<linearGradient y2="42.0806" id="svg1.SVGID_3_" x1="52.1938" gradientUnits="userSpaceOnUse" x2="17.5693" y1="42.0806">
	<stop offset="0" style="stop-color:#999999"/>
	<stop offset="0.0417" style="stop-color:#8D8D8D"/>
	<stop offset="0.1617" style="stop-color:#717171"/>
	<stop offset="0.2821" style="stop-color:#5D5D5D"/>
	<stop offset="0.4021" style="stop-color:#515151"/>
	<stop offset="0.5212" style="stop-color:#4D4D4D"/>
	<stop offset="0.6202" style="stop-color:#565656"/>
	<stop offset="0.7817" style="stop-color:#6E6E6E"/>
	<stop offset="0.9844" style="stop-color:#969696"/>
	<stop offset="1" style="stop-color:#999999"/>
</linearGradient>
<path fill="url(#svg1.SVGID_3_)" d="M51.97,42.018c0,0.516-0.45,0.938-1,0.938H18.345c-0.55,0-1-0.422-1-0.938s0.249-0.813,0.249-0.813  l34.146,0.028C51.74,41.234,51.97,41.502,51.97,42.018z"/>
<linearGradient y2="39.5415" id="svg1.SVGID_4_" x1="52.0024" gradientUnits="userSpaceOnUse" x2="17.7529" y1="39.5415">
	<stop offset="0" style="stop-color:#999999"/>
	<stop offset="0.0417" style="stop-color:#8D8D8D"/>
	<stop offset="0.1617" style="stop-color:#717171"/>
	<stop offset="0.2821" style="stop-color:#5D5D5D"/>
	<stop offset="0.4021" style="stop-color:#515151"/>
	<stop offset="0.5212" style="stop-color:#4D4D4D"/>
	<stop offset="0.6202" style="stop-color:#565656"/>
	<stop offset="0.7817" style="stop-color:#6E6E6E"/>
	<stop offset="0.9844" style="stop-color:#969696"/>
	<stop offset="1" style="stop-color:#999999"/>
</linearGradient>
<path fill="url(#svg1.SVGID_4_)" d="M51.782,41.286h-34.25l2.179-2.714c0.349-0.426,1.083-0.774,1.633-0.774h26.625  c0.55,0,1.285,0.349,1.633,0.774L51.782,41.286z"/>
<linearGradient gradientTransform="matrix(1 0 0 1 -760.5996 -1807.4023)" x1="797.8442" x2="792.8472" gradientUnits="userSpaceOnUse" y1="1842.3892" y2="1842.3892" id="svg1.SVGID_5_">
	<stop offset="0" style="stop-color:#999999"/>
	<stop offset="0.0417" style="stop-color:#8D8D8D"/>
	<stop offset="0.1617" style="stop-color:#717171"/>
	<stop offset="0.2821" style="stop-color:#5D5D5D"/>
	<stop offset="0.4021" style="stop-color:#515151"/>
	<stop offset="0.5212" style="stop-color:#4D4D4D"/>
	<stop offset="0.6202" style="stop-color:#565656"/>
	<stop offset="0.7817" style="stop-color:#6E6E6E"/>
	<stop offset="0.9844" style="stop-color:#969696"/>
	<stop offset="1" style="stop-color:#999999"/>
</linearGradient>
<path fill="url(#svg1.SVGID_5_)" d="M37.212,39.694c0,0-1.478,0.354-2.499,0.354c-1.021,0-2.499-0.354-2.499-0.354v-9.768h4.997V39.694z"/>
<radialGradient gradientTransform="matrix(1.513 0 0 1 -973.8635 -1807.4023)" id="svg1.SVGID_6_" r="24.0778" cx="657.0923" gradientUnits="userSpaceOnUse" cy="1817.3071">
	<stop offset="0" style="stop-color:#F2F2F2"/>
	<stop offset="1" style="stop-color:#666666"/>
</radialGradient>
<path fill="url(#svg1.SVGID_6_)" d="M0.14,2.14c0-1.1,1.184-2,2.631-2h63.474c1.446,0,2.631,0.9,2.631,2v30.073c0,1.101-1.185,2-2.631,2  H2.771c-1.447,0-2.631-0.899-2.631-2V2.14z"/>
<path stroke-linecap="round" fill="none" stroke-linejoin="round" d="  M0.14,2.14c0-1.1,1.184-2,2.631-2h63.474c1.446,0,2.631,0.9,2.631,2v30.073c0,1.101-1.185,2-2.631,2H2.771  c-1.447,0-2.631-0.899-2.631-2V2.14z" stroke="#666666" stroke-width="0.2794" stroke-miterlimit="10"/>
<radialGradient gradientTransform="matrix(1.5073 0 0 1 -921.6763 -1807.4023)" gradientUnits="userSpaceOnUse" r="53.3331" cx="635.0688" id="svg1.SVGID_7_" cy="1809.1597" fx="677.0258" fy="1801.9722">
	<stop offset="0" style="stop-color:#4D4D4D"/>
	<stop offset="1" style="stop-color:#999999"/>
</radialGradient>
<path fill="url(#svg1.SVGID_7_)" d="M2.813,3.161c0-1.1,1.136-2,2.525-2h58.636c1.389,0,2.525,0.9,2.525,2v27.805c0,1.1-1.137,2-2.525,2  H5.339c-1.389,0-2.525-0.9-2.525-2V3.161z"/>
<radialGradient gradientTransform="matrix(1.5102 0 0 1 -924.7913 -1807.4023)" id="svg1.SVGID_8_" r="34.1874" cx="636.0776" gradientUnits="userSpaceOnUse" cy="1809.2437">
	<stop offset="0" style="stop-color:#9CD7FF"/>
	<stop offset="1" style="stop-color:#3C89C9"/>
</radialGradient>
<path fill="url(#svg1.SVGID_8_)" d="M3.439,3.616c0-1.1,1.14-2,2.533-2h57.371c1.394,0,2.532,0.9,2.532,2V30.51c0,1.1-1.139,2-2.532,2  H5.972c-1.393,0-2.533-0.9-2.533-2V3.616z"/>
<path fill="#F2F2F2" d="M3.356,23.653V3.616c0-1.1,1.143-2,2.54-2h57.522  c1.398,0,2.54,0.9,2.54,2v13.539c0,0-17.706,2.838-34.415,4.549C14.834,23.414,3.356,23.653,3.356,23.653z" enable-background="new    " opacity="0.24"/>
</svg>
      </g>
    </g>
    <g text-rendering="geometricPrecision" stroke-miterlimit="1.45" shape-rendering="geometricPrecision" font-family="sans-serif" transform="matrix(1,0,0,1,-1,-111)" stroke-linecap="butt">
      <text x="458" xml:space="preserve" y="216.2018" clip-path="url(#clipPath2)" stroke="none">显示设备</text>
    </g>
    <g shape-rendering="geometricPrecision" text-rendering="geometricPrecision" transform="matrix(1,0,0,1,20.1525,107.5597)">
      <g clip-path="url(#clipPath4)">
        <svg xml:space="preserve" opacity="1" writing-mode="lr-tb" stop-color="rgb(0, 0, 0)" shape-rendering="auto" glyph-orientation-horizontal="0deg" color-profile="auto" lighting-color="rgb(255, 255, 255)" color="rgb(0, 0, 0)" font-weight="400" alignment-baseline="auto" font-style="normal" version="1.1" color-interpolation-filters="linearrgb" text-anchor="start" stroke-linecap="butt" color-interpolation="srgb" font-variant="normal" word-spacing="normal" fill-opacity="1" text-rendering="auto" clip-path="none" text-decoration="none" letter-spacing="normal" viewBox="-0.815 -0.706 67 68" glyph-orientation-vertical="auto" display="inline" font-size-adjust="none" overflow="hidden" fill="rgb(0, 0, 0)" font-stretch="normal" stroke-dasharray="none" stroke-miterlimit="4" stop-opacity="1" color-rendering="auto" font-size="12" pointer-events="visiblepainted" mask="none" direction="ltr" baseline-shift="baseline" enable-background="new -0.815 -0.706 67 68" fill-rule="nonzero" image-rendering="auto" stroke-dashoffset="0" width="67px" marker-end="none" clip="auto" cursor="auto" stroke="none" filter="none" visibility="visible" kerning="auto" stroke-width="1" font-family="&quot;Arial&quot;,&quot;Helvetica&quot;,sans-serif" flood-opacity="1" clip-rule="nonzero" src="none" height="68px" unicode-bidi="normal" stroke-linejoin="miter" stroke-opacity="1" flood-color="rgb(0, 0, 0)" dominant-baseline="auto" marker-start="none" x="0px" marker-mid="none" y="0px">
<defs>
</defs>
<path fill="#9CD7FF" d="M7.262,43.647c-1.538-3.435-2.401-7.236-2.401-11.245c0-15.214,12.333-27.543,27.545-27.543  s27.544,12.331,27.544,27.543c0,4.008-0.861,7.81-2.399,11.245l4.415,2.029c1.824-4.051,2.846-8.543,2.846-13.272  C64.812,14.508,50.302,0,32.406,0C14.509,0,0,14.508,0,32.405c0,4.729,1.022,9.222,2.845,13.272L7.262,43.647z"/>
<path fill="#B5E1FF" d="M16.102,39.588c-0.97-2.198-1.52-4.626-1.52-7.183c0-9.845,7.979-17.823,17.824-17.823  c9.841,0,17.822,7.979,17.822,17.823c0,2.559-0.55,4.985-1.52,7.183l4.412,2.026c1.254-2.816,1.967-5.928,1.967-9.209  c0-12.527-10.155-22.685-22.682-22.685C19.877,9.72,9.72,19.876,9.72,32.405c0,3.282,0.712,6.395,1.966,9.211L16.102,39.588z"/>
<path fill="#CDEBFF" d="M24.933,35.534c-0.404-0.963-0.628-2.021-0.628-3.129c0-4.473,3.627-8.1,8.101-8.1s8.101,3.627,8.101,8.1  c0,1.11-0.223,2.167-0.627,3.129l4.416,2.027c0.687-1.582,1.072-3.322,1.072-5.157c0-7.158-5.804-12.961-12.961-12.961  c-7.158,0-12.961,5.803-12.961,12.961c0,1.834,0.385,3.575,1.072,5.159L24.933,35.534z"/>
<linearGradient gradientTransform="matrix(1 0 0 -1 -292.8008 -925.1133)" x1="312.8286" x2="308.7215" gradientUnits="userSpaceOnUse" y1="-960.2319" y2="-960.2319" id="svg2.SVGID_1_">
	<stop offset="0" style="stop-color:#808080"/>
	<stop offset="0.2115" style="stop-color:#838383"/>
	<stop offset="0.3411" style="stop-color:#8B8B8B"/>
	<stop offset="0.4484" style="stop-color:#999999"/>
	<stop offset="0.498" style="stop-color:#A3A3A3"/>
	<stop offset="0.7818" style="stop-color:#B3B3B3"/>
	<stop offset="1" style="stop-color:#B3B3B3"/>
</linearGradient>
<path fill="url(#svg2.SVGID_1_)" d="M19.16,50.017c0,0.646-0.529,1.176-1.176,1.176h-0.142c-0.646,0-1.176-0.528-1.176-1.176V20.223  c0-0.647,0.529-1.176,1.176-1.176h0.142c0.646,0,1.176,0.529,1.176,1.176V50.017z"/>
<linearGradient gradientTransform="matrix(1 0 0 -1 -292.8008 -925.1133)" x1="342.2319" x2="338.1219" gradientUnits="userSpaceOnUse" y1="-960.2319" y2="-960.2319" id="svg2.SVGID_2_">
	<stop offset="0" style="stop-color:#808080"/>
	<stop offset="0.2115" style="stop-color:#838383"/>
	<stop offset="0.3411" style="stop-color:#8B8B8B"/>
	<stop offset="0.4484" style="stop-color:#999999"/>
	<stop offset="0.498" style="stop-color:#A3A3A3"/>
	<stop offset="0.7818" style="stop-color:#B3B3B3"/>
	<stop offset="1" style="stop-color:#B3B3B3"/>
</linearGradient>
<path fill="url(#svg2.SVGID_2_)" d="M48.562,50.017c0,0.646-0.529,1.176-1.176,1.176h-0.141c-0.647,0-1.177-0.528-1.177-1.176V20.223  c0-0.647,0.528-1.176,1.177-1.176h0.141c0.646,0,1.176,0.529,1.176,1.176V50.017z"/>
<linearGradient gradientTransform="matrix(1 0 0 -1 -292.8008 -925.1133)" x1="357.728" x2="292.4569" gradientUnits="userSpaceOnUse" y1="-981.8672" y2="-981.8672" id="svg2.SVGID_3_">
	<stop offset="0" style="stop-color:#6E6E6E"/>
	<stop offset="0.1059" style="stop-color:#707070"/>
	<stop offset="0.1647" style="stop-color:#787878"/>
	<stop offset="0.1939" style="stop-color:#808080"/>
	<stop offset="0.4146" style="stop-color:#838383"/>
	<stop offset="0.5499" style="stop-color:#8B8B8B"/>
	<stop offset="0.6622" style="stop-color:#999999"/>
	<stop offset="0.7614" style="stop-color:#AEAEAE"/>
	<stop offset="0.7818" style="stop-color:#B3B3B3"/>
</linearGradient>
<path fill="url(#svg2.SVGID_3_)" d="M63.865,54.347c0.006,0,0.018,0,0.018,0l-0.061-0.025c-0.023-0.016-0.051-0.024-0.074-0.039  l-10.436-5.17c-1.152-0.58-3.158-1.135-4.445-1.231c0,0-4.783-0.362-15.908-0.362c-9.092,0-16.355,0.406-16.355,0.406  c-1.292,0.075-3.298,0.602-4.457,1.174L2.012,54.142h0.001c-1.061,0.305-1.865,1.313-1.865,2.44v5.881  c0,1.294,1.055,2.438,2.344,2.544c0,0,11.965,0.979,30.195,0.984c18.816,0.006,30.193-0.975,30.193-0.975  c1.291-0.111,2.345-1.261,2.345-2.555v-5.881C65.222,55.646,64.662,54.787,63.865,54.347z M33.132,53.056c-0.085,0-0.17,0-0.257,0  c0.027,0,0.054,0,0.082,0C33.015,53.056,33.073,53.056,33.132,53.056z M31.578,53.058c-0.045,0-0.09,0-0.133,0  C31.488,53.058,31.533,53.058,31.578,53.058z"/>
<linearGradient gradientTransform="matrix(1 0 0 -1 -292.8008 -925.1133)" x1="343.2397" x2="307.5796" gradientUnits="userSpaceOnUse" y1="-982.0229" y2="-982.0229" id="svg2.SVGID_4_">
	<stop offset="0" style="stop-color:#3C89C9"/>
	<stop offset="0.1662" style="stop-color:#3C89C9"/>
	<stop offset="0.1939" style="stop-color:#3C89C9"/>
	<stop offset="0.7402" style="stop-color:#81C1F0"/>
	<stop offset="1" style="stop-color:#9CD7FF"/>
</linearGradient>
<path fill="url(#svg2.SVGID_4_)" d="M49.309,54.347c0.002,0,0.009,0,0.009,0l-0.031-0.025c-0.015-0.016-0.026-0.024-0.039-0.039  l-5.586-5.661c-0.613-0.579-1.688-1.136-2.373-1.231c0,0-2.551-0.363-8.479-0.363c-4.848,0-8.721,0.408-8.721,0.408  c-0.689,0.073-1.758,0.602-2.377,1.174l-5.379,5.533h0.001c-0.565,0.305-0.995,1.314-0.995,2.441l0.001,6.684  c0,1.297,0.563,2.438,1.25,2.545c0,0,6.379,0.979,16.098,0.983c10.032,0.006,16.098-0.976,16.098-0.976  c0.688-0.109,1.25-1.262,1.25-2.555v-6.684C50.033,55.646,49.734,54.787,49.309,54.347z M32.923,53.056c-0.046,0-0.092,0-0.137,0  c0.016,0,0.028,0,0.044,0C32.86,53.056,32.892,53.056,32.923,53.056z M32.095,53.058c-0.023,0-0.048,0-0.072,0  C32.046,53.058,32.07,53.058,32.095,53.058z"/>
<rect x="62.723" y="57.708" fill="#C8FF00" width="2.646" height="1.078" stroke="#717171" stroke-width="0.0588" stroke-miterlimit="10"/>
<polygon fill="#C8FF00" stroke-width="0.0588" stroke-miterlimit="10" points="36.844,60.272 40.863,60.272   40.923,62.586 36.906,62.586 " stroke="#717171"/>
<polygon fill="#C8FF00" stroke-width="0.0588" stroke-miterlimit="10" points="30.614,60.493 34.633,60.493   34.695,62.808 30.676,62.808 " stroke="#717171"/>
<polygon fill="#C8FF00" stroke-width="0.0588" stroke-miterlimit="10" points="24.384,60.272 28.403,60.272   28.465,62.586 24.447,62.586 " stroke="#717171"/>
<polygon fill="#C8FF00" stroke-width="0.0588" stroke-miterlimit="10" points="43.074,59.979 47.092,59.979   47.154,62.292 43.136,62.292 " stroke="#717171"/>
<polygon fill="#C8FF00" stroke-width="0.0588" stroke-miterlimit="10" points="18.156,59.979 22.174,59.979   22.236,62.292 18.217,62.292 " stroke="#717171"/>
<path fill="#F2F2F2" d="M45.115,50.095l-1.457-1.475  c-0.615-0.581-1.684-1.135-2.369-1.232c0,0-2.553-0.363-8.481-0.363c-4.848,0-8.721,0.408-8.721,0.408  c-0.689,0.071-1.758,0.6-2.376,1.172l-5.38,5.535h0.002c-0.566,0.307-0.995,1.313-0.995,2.44l0.001,6.687  c0,0,17.324-5.49,22.371-8.121C42.753,52.517,45.126,50.106,45.115,50.095z M32.923,53.056c-0.046,0-0.092,0-0.137,0  c0.016,0,0.028,0,0.044,0C32.86,53.056,32.892,53.056,32.923,53.056z M32.095,53.058c-0.023,0-0.048,0-0.072,0  C32.046,53.058,32.07,53.058,32.095,53.058z" enable-background="new    " opacity="0.24"/>
</svg>
      </g>
    </g>
    <g text-rendering="geometricPrecision" stroke-miterlimit="1.45" shape-rendering="geometricPrecision" font-family="sans-serif" transform="matrix(1,0,0,1,-1,-111)" stroke-linecap="butt">
      <text x="18.6667" xml:space="preserve" y="303.6692" clip-path="url(#clipPath2)" stroke="none">地面接收设备</text>
      <text x="198.5" xml:space="preserve" y="207.3359" clip-path="url(#clipPath2)" stroke="none">输</text>
      <text x="198.5" xml:space="preserve" y="221.4688" clip-path="url(#clipPath2)" stroke="none">入</text>
      <text x="198.5" xml:space="preserve" y="235.6016" clip-path="url(#clipPath2)" stroke="none">线</text>
      <text x="198.5" xml:space="preserve" y="249.7344" clip-path="url(#clipPath2)" stroke="none">程</text>
      <rect fill="none" x="187" width="35" height="132" y="158" clip-path="url(#clipPath2)"/>
      <text x="269.5" xml:space="preserve" y="193.2031" clip-path="url(#clipPath2)" stroke="none">数</text>
      <text x="269.5" xml:space="preserve" y="207.3359" clip-path="url(#clipPath2)" stroke="none">据</text>
      <text x="269.5" xml:space="preserve" y="221.4688" clip-path="url(#clipPath2)" stroke="none">处</text>
      <text x="269.5" xml:space="preserve" y="235.6016" clip-path="url(#clipPath2)" stroke="none">理</text>
      <text x="269.5" xml:space="preserve" y="249.7344" clip-path="url(#clipPath2)" stroke="none">线</text>
      <text x="269.5" xml:space="preserve" y="263.8672" clip-path="url(#clipPath2)" stroke="none">程</text>
      <rect fill="none" x="258" width="35" height="132" y="158" clip-path="url(#clipPath2)"/>
      <text x="341.5" xml:space="preserve" y="207.3359" clip-path="url(#clipPath2)" stroke="none">显</text>
      <text x="341.5" xml:space="preserve" y="221.4688" clip-path="url(#clipPath2)" stroke="none">示</text>
      <text x="341.5" xml:space="preserve" y="235.6016" clip-path="url(#clipPath2)" stroke="none">线</text>
      <text x="341.5" xml:space="preserve" y="249.7344" clip-path="url(#clipPath2)" stroke="none">程</text>
      <rect fill="none" x="330" width="35" height="132" y="158" clip-path="url(#clipPath2)"/>
    </g>
    <g text-rendering="geometricPrecision" stroke-miterlimit="1.45" shape-rendering="geometricPrecision" transform="matrix(1,0,0,1,-1,-111)" stroke-linecap="butt">
      <path fill="none" d="M426.4693 241.6319 L426.4859 248.6319 L426.4859 248.6319 L377.9946 248.747 L378.0054 255.747 L426.5025 255.6318 L426.5025 255.6318 L426.5191 262.6318 L447.4941 252.082 L426.4693 241.6319 Z" clip-path="url(#clipPath2)"/>
      <text x="388.7462" xml:space="preserve" y="226.6996" font-family="sans-serif" clip-path="url(#clipPath2)" stroke="none">输出数据</text>
    </g>
    <g text-rendering="geometricPrecision" stroke-miterlimit="1.45" shape-rendering="geometricPrecision" transform="matrix(1,0,0,1,-1,-111)" stroke-linecap="butt">
      <path fill="none" d="M143.9919 242.098 L143.9973 249.098 L143.9973 249.098 L87.3504 249.1415 L87.3611 256.1415 L144.0027 256.098 L144.0027 256.098 L144.0081 263.098 L165 252.5819 L143.9919 242.098 Z" clip-path="url(#clipPath2)"/>
      <text x="94.3659" xml:space="preserve" y="227.1528" font-family="sans-serif" clip-path="url(#clipPath2)" stroke="none">输入数据</text>
    </g>
    <g text-rendering="geometricPrecision" stroke-miterlimit="1.45" shape-rendering="geometricPrecision" transform="matrix(1,0,0,1,-1,-111)" stroke-linecap="butt">
      <path fill="none" d="M205.8098 290.0071 L213.4765 325.1679" clip-path="url(#clipPath2)"/>
      <path d="M215.1808 332.9842 L217.5095 320.1945 L213.2634 324.1908 L207.7391 322.3249 Z" clip-path="url(#clipPath2)" stroke="none"/>
      <path fill="none" d="M256.4231 333.0244 L267.2436 297.612" clip-path="url(#clipPath2)"/>
      <path d="M269.5813 289.9612 L261.2929 299.9763 L266.9513 298.5683 L270.8564 302.8985 Z" clip-path="url(#clipPath2)" stroke="none"/>
      <path fill="none" d="M284.8696 290.0356 L303.9862 325.9376" clip-path="url(#clipPath2)"/>
      <path d="M307.7462 332.999 L306.5196 320.0569 L303.5162 325.0549 L297.6929 324.7569 Z" clip-path="url(#clipPath2)" stroke="none"/>
      <path fill="none" d="M333.0852 333.0044 L342.3718 297.7793" clip-path="url(#clipPath2)"/>
      <path d="M344.4112 290.0436 L336.5173 300.3725 L342.1169 298.7463 L346.1869 302.9218 Z" clip-path="url(#clipPath2)" stroke="none"/>
    </g>
  </g>
</svg>
