<?xml version="1.0" encoding="UTF-8"?>
<svg xmlns="http://www.w3.org/2000/svg" xmlns:xlink="http://www.w3.org/1999/xlink" fill-opacity="1" color-rendering="auto" color-interpolation="auto" stroke="black" text-rendering="auto" stroke-linecap="square" width="341" stroke-miterlimit="10" stroke-opacity="1" shape-rendering="auto" fill="black" stroke-dasharray="none" font-weight="normal" stroke-width="1" height="342" font-family="'Dialog'" font-style="normal" stroke-linejoin="miter" font-size="12" stroke-dashoffset="0" image-rendering="auto">
  <!--Generated by ySVG 2.5-->
  <defs id="genericDefs"/>
  <g>
    <defs id="defs1">
      <clipPath clipPathUnits="userSpaceOnUse" id="clipPath1">
        <path d="M0 0 L341 0 L341 342 L0 342 L0 0 Z"/>
      </clipPath>
      <clipPath clipPathUnits="userSpaceOnUse" id="clipPath2">
        <path d="M209 73 L550 73 L550 415 L209 415 L209 73 Z"/>
      </clipPath>
    </defs>
    <g fill="white" text-rendering="geometricPrecision" shape-rendering="geometricPrecision" transform="translate(-209,-73)" stroke="white">
      <rect x="209" width="341" height="342" y="73" clip-path="url(#clipPath2)" stroke="none"/>
    </g>
    <g text-rendering="geometricPrecision" stroke-miterlimit="1.45" shape-rendering="geometricPrecision" font-family="sans-serif" transform="matrix(1,0,0,1,-209,-73)" stroke-linecap="butt">
      <text x="313" xml:space="preserve" y="179.9023" clip-path="url(#clipPath2)" stroke="none">对</text>
      <text x="313" xml:space="preserve" y="194.0352" clip-path="url(#clipPath2)" stroke="none">象</text>
      <text x="315.2061" xml:space="preserve" y="208.168" clip-path="url(#clipPath2)" stroke="none">1</text>
      <rect fill="none" x="304" width="30" height="60" y="159.5" clip-path="url(#clipPath2)"/>
      <text x="360" xml:space="preserve" y="179.9023" clip-path="url(#clipPath2)" stroke="none">对</text>
      <text x="360" xml:space="preserve" y="194.0352" clip-path="url(#clipPath2)" stroke="none">象</text>
      <text x="362.2061" xml:space="preserve" y="208.168" clip-path="url(#clipPath2)" stroke="none">2</text>
      <rect fill="none" x="351" width="30" height="60" y="159.5" clip-path="url(#clipPath2)"/>
      <text x="434" xml:space="preserve" y="179.9023" clip-path="url(#clipPath2)" stroke="none">对</text>
      <text x="434" xml:space="preserve" y="194.0352" clip-path="url(#clipPath2)" stroke="none">象</text>
      <text x="436.2764" xml:space="preserve" y="208.168" clip-path="url(#clipPath2)" stroke="none">n</text>
      <rect fill="none" x="425" width="30" height="60" y="159.5" clip-path="url(#clipPath2)"/>
      <text x="399.3047" xml:space="preserve" y="194.0352" clip-path="url(#clipPath2)" stroke="none">...</text>
      <text x="372.8604" xml:space="preserve" y="106.5352" clip-path="url(#clipPath2)" stroke="none">类A</text>
      <rect fill="none" x="350" width="66" height="26" y="89" clip-path="url(#clipPath2)"/>
      <text x="284.5" xml:space="preserve" y="390.9688" clip-path="url(#clipPath2)" stroke="none">文件A</text>
      <rect fill="none" x="278.5" width="200" height="102" y="297.5" clip-path="url(#clipPath2)"/>
      <text x="313" xml:space="preserve" y="331.4023" clip-path="url(#clipPath2)" stroke="none">记</text>
      <text x="313" xml:space="preserve" y="345.5352" clip-path="url(#clipPath2)" stroke="none">录</text>
      <text x="315.2061" xml:space="preserve" y="359.668" clip-path="url(#clipPath2)" stroke="none">1</text>
      <rect fill="none" x="304" width="30" height="60" y="311" clip-path="url(#clipPath2)"/>
      <text x="343" xml:space="preserve" y="331.4023" clip-path="url(#clipPath2)" stroke="none">记</text>
      <text x="343" xml:space="preserve" y="345.5352" clip-path="url(#clipPath2)" stroke="none">录</text>
      <text x="345.2061" xml:space="preserve" y="359.668" clip-path="url(#clipPath2)" stroke="none">2</text>
      <rect fill="none" x="334" width="30" height="60" y="311" clip-path="url(#clipPath2)"/>
      <text x="373" xml:space="preserve" y="331.4023" clip-path="url(#clipPath2)" stroke="none">记</text>
      <text x="373" xml:space="preserve" y="345.5352" clip-path="url(#clipPath2)" stroke="none">录</text>
      <text x="375.2061" xml:space="preserve" y="359.668" clip-path="url(#clipPath2)" stroke="none">3</text>
      <rect fill="none" x="364" width="30" height="60" y="311" clip-path="url(#clipPath2)"/>
      <text x="353" xml:space="preserve" y="263.5352" clip-path="url(#clipPath2)" stroke="none">数据接口</text>
      <rect fill="none" x="301" width="152" height="28" y="245" clip-path="url(#clipPath2)"/>
      <text x="403.3047" xml:space="preserve" y="345.5352" clip-path="url(#clipPath2)" stroke="none">...</text>
      <rect fill="none" x="394" width="30" height="60" y="311" clip-path="url(#clipPath2)"/>
      <text x="433" xml:space="preserve" y="331.4023" clip-path="url(#clipPath2)" stroke="none">记</text>
      <text x="433" xml:space="preserve" y="345.5352" clip-path="url(#clipPath2)" stroke="none">录</text>
      <text x="435.2764" xml:space="preserve" y="359.668" clip-path="url(#clipPath2)" stroke="none">n</text>
      <rect fill="none" x="424" width="30" height="60" y="311" clip-path="url(#clipPath2)"/>
      <text x="260.5" xml:space="preserve" y="225.5703" clip-path="url(#clipPath2)" stroke="none">内</text>
      <text x="260.5" xml:space="preserve" y="239.7031" clip-path="url(#clipPath2)" stroke="none">存</text>
      <text x="260.5" xml:space="preserve" y="253.8359" clip-path="url(#clipPath2)" stroke="none">空</text>
      <text x="260.5" xml:space="preserve" y="267.9688" clip-path="url(#clipPath2)" stroke="none">间</text>
      <text x="486.5" xml:space="preserve" y="316.1016" clip-path="url(#clipPath2)" stroke="none">文</text>
      <text x="486.5" xml:space="preserve" y="330.2344" clip-path="url(#clipPath2)" stroke="none">件</text>
      <text x="486.5" xml:space="preserve" y="344.3672" clip-path="url(#clipPath2)" stroke="none">系</text>
      <text x="486.5" xml:space="preserve" y="358.5" clip-path="url(#clipPath2)" stroke="none">统</text>
    </g>
    <g text-rendering="geometricPrecision" stroke-miterlimit="1.45" shape-rendering="geometricPrecision" transform="matrix(1,0,0,1,-209,-73)" stroke-linecap="butt">
      <path fill="none" d="M380 118.5 L380 142.35 L375.25 139.5 L381.5 154.5 L387.75 139.5 L383 142.35 L383 118.5 Z" clip-path="url(#clipPath2)"/>
      <text x="333.5" xml:space="preserve" y="141.0352" font-family="sans-serif" clip-path="url(#clipPath2)" stroke="none">实例化</text>
    </g>
    <g text-rendering="geometricPrecision" stroke-miterlimit="1.45" shape-rendering="geometricPrecision" transform="matrix(1,0,0,1,-209,-73)" stroke-linecap="butt">
      <path fill="none" d="M317.8121 223.5495 L317.8121 240.9922" clip-path="url(#clipPath2)"/>
      <path d="M317.8121 219.5495 L311.8121 227.5495 L317.8121 224.5495 L323.8121 227.5495 Z" clip-path="url(#clipPath2)" stroke="none"/>
      <path d="M317.8121 244.9922 L323.8121 236.9922 L317.8121 239.9922 L311.8121 236.9922 Z" clip-path="url(#clipPath2)" stroke="none"/>
      <path fill="none" d="M366.7522 223.5018 L366.7522 240.9766" clip-path="url(#clipPath2)"/>
      <path d="M366.7522 219.5018 L360.7522 227.5018 L366.7522 224.5018 L372.7522 227.5018 Z" clip-path="url(#clipPath2)" stroke="none"/>
      <path d="M366.7522 244.9766 L372.7522 236.9766 L366.7522 239.9766 L360.7522 236.9766 Z" clip-path="url(#clipPath2)" stroke="none"/>
      <path fill="none" d="M438.0413 223.5396 L438.0413 240.9609" clip-path="url(#clipPath2)"/>
      <path d="M438.0413 219.5396 L432.0413 227.5396 L438.0413 224.5396 L444.0413 227.5396 Z" clip-path="url(#clipPath2)" stroke="none"/>
      <path d="M438.0413 244.9609 L444.0413 236.9609 L438.0413 239.9609 L432.0413 236.9609 Z" clip-path="url(#clipPath2)" stroke="none"/>
      <path fill="none" d="M379 277.0098 L379 307" clip-path="url(#clipPath2)"/>
      <path d="M379 273.0098 L373 281.0098 L379 278.0098 L385 281.0098 Z" clip-path="url(#clipPath2)" stroke="none"/>
      <path d="M379 311 L385 303 L379 306 L373 303 Z" clip-path="url(#clipPath2)" stroke="none"/>
      <path fill="none" d="M319 276.9942 L319 307" clip-path="url(#clipPath2)"/>
      <path d="M319 272.9942 L313 280.9942 L319 277.9942 L325 280.9942 Z" clip-path="url(#clipPath2)" stroke="none"/>
      <path d="M319 311 L325 303 L319 306 L313 303 Z" clip-path="url(#clipPath2)" stroke="none"/>
      <path fill="none" d="M349 277.0078 L349 307" clip-path="url(#clipPath2)"/>
      <path d="M349 273.0078 L343 281.0078 L349 278.0078 L355 281.0078 Z" clip-path="url(#clipPath2)" stroke="none"/>
      <path d="M349 311 L355 303 L349 306 L343 303 Z" clip-path="url(#clipPath2)" stroke="none"/>
      <path fill="none" d="M409 276.9942 L409 307" clip-path="url(#clipPath2)"/>
      <path d="M409 272.9942 L403 280.9942 L409 277.9942 L415 280.9942 Z" clip-path="url(#clipPath2)" stroke="none"/>
      <path d="M409 311 L415 303 L409 306 L403 303 Z" clip-path="url(#clipPath2)" stroke="none"/>
      <path fill="none" d="M439 277.0254 L439 307" clip-path="url(#clipPath2)"/>
      <path d="M439 273.0254 L433 281.0254 L439 278.0254 L445 281.0254 Z" clip-path="url(#clipPath2)" stroke="none"/>
      <path d="M439 311 L445 303 L439 306 L433 303 Z" clip-path="url(#clipPath2)" stroke="none"/>
    </g>
    <g stroke-linecap="round" transform="matrix(1,0,0,1,-209,-73)" stroke-dashoffset="2" text-rendering="geometricPrecision" shape-rendering="geometricPrecision" stroke-dasharray="0,8" stroke-width="2" stroke-miterlimit="1.45">
      <path fill="none" d="M254.5049 287.5 L504.5229 287.5" clip-path="url(#clipPath2)"/>
    </g>
  </g>
</svg>
