<?xml version="1.0" encoding="UTF-8"?>
<svg xmlns="http://www.w3.org/2000/svg" xmlns:xlink="http://www.w3.org/1999/xlink" fill-opacity="1" color-rendering="auto" color-interpolation="auto" stroke="black" text-rendering="auto" stroke-linecap="square" width="454" stroke-miterlimit="10" stroke-opacity="1" shape-rendering="auto" fill="black" stroke-dasharray="none" font-weight="normal" stroke-width="1" height="384" font-family="'Dialog'" font-style="normal" stroke-linejoin="miter" font-size="12" stroke-dashoffset="0" image-rendering="auto">
  <!--Generated by ySVG 2.5-->
  <defs id="genericDefs"/>
  <g>
    <g fill="white" text-rendering="geometricPrecision" shape-rendering="geometricPrecision" transform="translate(-200,-109)" stroke="white">
      <rect x="200" width="454" height="384" y="109" clip-path="url(#clipPath2)" stroke="none"/>
    </g>
    <g text-rendering="geometricPrecision" stroke-miterlimit="1.45" shape-rendering="geometricPrecision" font-family="sans-serif" transform="matrix(1,0,0,1,-200,-109)" stroke-linecap="butt">
      <text x="356.3955" xml:space="preserve" y="226.5352" clip-path="url(#clipPath2)" stroke="none">IPC/RPC</text>
      <text x="524.3047" xml:space="preserve" y="225.5352" clip-path="url(#clipPath2)" stroke="none">...</text>
    </g>
    <g shape-rendering="geometricPrecision" text-rendering="geometricPrecision" transform="matrix(1.586,0,0,0.4329,230.375,347.6935)">
      <g clip-path="url(#clipPath3)">
        <svg xml:space="preserve" opacity="1" writing-mode="lr-tb" stop-color="rgb(0, 0, 0)" shape-rendering="auto" glyph-orientation-horizontal="0deg" color-profile="auto" lighting-color="rgb(255, 255, 255)" color="rgb(0, 0, 0)" font-weight="400" alignment-baseline="auto" font-style="normal" version="1.1" color-interpolation-filters="linearrgb" text-anchor="start" stroke-linecap="butt" color-interpolation="srgb" font-variant="normal" word-spacing="normal" fill-opacity="1" text-rendering="auto" clip-path="none" text-decoration="none" letter-spacing="normal" viewBox="0 0 40 48" glyph-orientation-vertical="auto" display="inline" font-size-adjust="none" overflow="hidden" fill="rgb(0, 0, 0)" font-stretch="normal" stroke-dasharray="none" stroke-miterlimit="4" stop-opacity="1" color-rendering="auto" font-size="12" pointer-events="visiblepainted" mask="none" direction="ltr" baseline-shift="baseline" enable-background="new 0 0 40 48" fill-rule="nonzero" image-rendering="auto" stroke-dashoffset="0" width="40px" marker-end="none" clip="auto" cursor="auto" stroke="none" filter="none" visibility="visible" kerning="auto" stroke-width="1" font-family="&quot;Arial&quot;,&quot;Helvetica&quot;,sans-serif" flood-opacity="1" clip-rule="nonzero" src="none" height="48px" unicode-bidi="normal" stroke-linejoin="miter" stroke-opacity="1" flood-color="rgb(0, 0, 0)" dominant-baseline="auto" marker-start="none" x="0px" marker-mid="none" y="0px">
<defs>
<clipPath clipPathUnits="userSpaceOnUse" id="clipPath1">
              <path d="M0 0 L454 0 L454 384 L0 384 L0 0 Z"/>
            </clipPath>
            <clipPath clipPathUnits="userSpaceOnUse" id="clipPath2">
              <path d="M200 109 L654 109 L654 493 L200 493 L200 109 Z"/>
            </clipPath>
            <clipPath clipPathUnits="userSpaceOnUse" id="clipPath3">
              <path d="M-145.2565 -803.1209 L141.0005 -803.1209 L141.0005 83.8627 L-145.2565 83.8627 L-145.2565 -803.1209 Z"/>
            </clipPath>
          </defs>
<linearGradient gradientTransform="matrix(1 0 0 1 -370.2002 -614.5742)" x1="370.2002" x2="409.4502" gradientUnits="userSpaceOnUse" y1="655.0938" y2="655.0938" id="svg1.SVGID_1_">
	<stop offset="0" style="stop-color:#4D4D4D"/>
	<stop offset="0.0558" style="stop-color:#5F5F5F"/>
	<stop offset="0.2103" style="stop-color:#8D8D8D"/>
	<stop offset="0.3479" style="stop-color:#AEAEAE"/>
	<stop offset="0.4623" style="stop-color:#C2C2C2"/>
	<stop offset="0.5394" style="stop-color:#C9C9C9"/>
	<stop offset="0.6247" style="stop-color:#C5C5C5"/>
	<stop offset="0.7072" style="stop-color:#BABABA"/>
	<stop offset="0.7885" style="stop-color:#A6A6A6"/>
	<stop offset="0.869" style="stop-color:#8B8B8B"/>
	<stop offset="0.9484" style="stop-color:#686868"/>
	<stop offset="1" style="stop-color:#4D4D4D"/>
</linearGradient>
<path fill="url(#svg1.SVGID_1_)" d="M19.625,37.613C8.787,37.613,0,35.738,0,33.425v10c0,2.313,8.787,4.188,19.625,4.188  c10.839,0,19.625-1.875,19.625-4.188v-10C39.25,35.738,30.464,37.613,19.625,37.613z"/>
<linearGradient gradientTransform="matrix(1 0 0 1 -370.2002 -614.5742)" x1="370.2002" x2="409.4502" gradientUnits="userSpaceOnUse" y1="649.0938" y2="649.0938" id="svg1.SVGID_2_">
	<stop offset="0" style="stop-color:#B3B3B3"/>
	<stop offset="0.0171" style="stop-color:#B6B6B6"/>
	<stop offset="0.235" style="stop-color:#D7D7D7"/>
	<stop offset="0.4168" style="stop-color:#EBEBEB"/>
	<stop offset="0.5394" style="stop-color:#F2F2F2"/>
	<stop offset="0.6579" style="stop-color:#EEEEEE"/>
	<stop offset="0.7724" style="stop-color:#E3E3E3"/>
	<stop offset="0.8853" style="stop-color:#CFCFCF"/>
	<stop offset="0.9965" style="stop-color:#B4B4B4"/>
	<stop offset="1" style="stop-color:#B3B3B3"/>
</linearGradient>
<path fill="url(#svg1.SVGID_2_)" d="M19.625,37.613c10.839,0,19.625-1.875,19.625-4.188l-1.229-2c0,2.168-8.235,3.927-18.396,3.927  c-9.481,0-17.396-1.959-18.396-3.927l-1.229,2C0,35.738,8.787,37.613,19.625,37.613z"/>
<linearGradient gradientTransform="matrix(1 0 0 1 -370.2002 -614.5742)" x1="371.4297" x2="408.2217" gradientUnits="userSpaceOnUse" y1="646" y2="646" id="svg1.SVGID_3_">
	<stop offset="0" style="stop-color:#C9C9C9"/>
	<stop offset="1" style="stop-color:#808080"/>
</linearGradient>
<ellipse rx="18.396" fill="url(#svg1.SVGID_3_)" ry="3.926" cx="19.625" cy="31.425"/>
<linearGradient gradientTransform="matrix(1 0 0 1 -370.2002 -614.5742)" x1="370.2002" x2="409.4502" gradientUnits="userSpaceOnUse" y1="641.0938" y2="641.0938" id="svg1.SVGID_4_">
	<stop offset="0" style="stop-color:#4D4D4D"/>
	<stop offset="0.0558" style="stop-color:#5F5F5F"/>
	<stop offset="0.2103" style="stop-color:#8D8D8D"/>
	<stop offset="0.3479" style="stop-color:#AEAEAE"/>
	<stop offset="0.4623" style="stop-color:#C2C2C2"/>
	<stop offset="0.5394" style="stop-color:#C9C9C9"/>
	<stop offset="0.6247" style="stop-color:#C5C5C5"/>
	<stop offset="0.7072" style="stop-color:#BABABA"/>
	<stop offset="0.7885" style="stop-color:#A6A6A6"/>
	<stop offset="0.869" style="stop-color:#8B8B8B"/>
	<stop offset="0.9484" style="stop-color:#686868"/>
	<stop offset="1" style="stop-color:#4D4D4D"/>
</linearGradient>
<path fill="url(#svg1.SVGID_4_)" d="M19.625,23.613C8.787,23.613,0,21.738,0,19.425v10c0,2.313,8.787,4.188,19.625,4.188  c10.839,0,19.625-1.875,19.625-4.188v-10C39.25,21.738,30.464,23.613,19.625,23.613z"/>
<linearGradient gradientTransform="matrix(1 0 0 1 -370.2002 -614.5742)" x1="370.2002" x2="409.4502" gradientUnits="userSpaceOnUse" y1="635.0938" y2="635.0938" id="svg1.SVGID_5_">
	<stop offset="0" style="stop-color:#B3B3B3"/>
	<stop offset="0.0171" style="stop-color:#B6B6B6"/>
	<stop offset="0.235" style="stop-color:#D7D7D7"/>
	<stop offset="0.4168" style="stop-color:#EBEBEB"/>
	<stop offset="0.5394" style="stop-color:#F2F2F2"/>
	<stop offset="0.6579" style="stop-color:#EEEEEE"/>
	<stop offset="0.7724" style="stop-color:#E3E3E3"/>
	<stop offset="0.8853" style="stop-color:#CFCFCF"/>
	<stop offset="0.9965" style="stop-color:#B4B4B4"/>
	<stop offset="1" style="stop-color:#B3B3B3"/>
</linearGradient>
<path fill="url(#svg1.SVGID_5_)" d="M19.625,23.613c10.839,0,19.625-1.875,19.625-4.188l-1.229-2c0,2.168-8.235,3.926-18.396,3.926  c-9.481,0-17.396-1.959-18.396-3.926l-1.229,2C0,21.738,8.787,23.613,19.625,23.613z"/>
<linearGradient gradientTransform="matrix(1 0 0 1 -370.2002 -614.5742)" x1="371.4297" x2="408.2217" gradientUnits="userSpaceOnUse" y1="632" y2="632" id="svg1.SVGID_6_">
	<stop offset="0" style="stop-color:#C9C9C9"/>
	<stop offset="1" style="stop-color:#808080"/>
</linearGradient>
<ellipse rx="18.396" fill="url(#svg1.SVGID_6_)" ry="3.926" cx="19.625" cy="17.426"/>
<linearGradient gradientTransform="matrix(1 0 0 1 -370.2002 -614.5742)" x1="370.2002" x2="409.4502" gradientUnits="userSpaceOnUse" y1="627.5938" y2="627.5938" id="svg1.SVGID_7_">
	<stop offset="0" style="stop-color:#4D4D4D"/>
	<stop offset="0.0558" style="stop-color:#5F5F5F"/>
	<stop offset="0.2103" style="stop-color:#8D8D8D"/>
	<stop offset="0.3479" style="stop-color:#AEAEAE"/>
	<stop offset="0.4623" style="stop-color:#C2C2C2"/>
	<stop offset="0.5394" style="stop-color:#C9C9C9"/>
	<stop offset="0.6247" style="stop-color:#C5C5C5"/>
	<stop offset="0.7072" style="stop-color:#BABABA"/>
	<stop offset="0.7885" style="stop-color:#A6A6A6"/>
	<stop offset="0.869" style="stop-color:#8B8B8B"/>
	<stop offset="0.9484" style="stop-color:#686868"/>
	<stop offset="1" style="stop-color:#4D4D4D"/>
</linearGradient>
<path fill="url(#svg1.SVGID_7_)" d="M19.625,10.113C8.787,10.113,0,8.238,0,5.925v10c0,2.313,8.787,4.188,19.625,4.188  c10.839,0,19.625-1.875,19.625-4.188v-10C39.25,8.238,30.464,10.113,19.625,10.113z"/>
<linearGradient gradientTransform="matrix(1 0 0 1 -370.2002 -614.5742)" x1="370.2002" x2="409.4502" gradientUnits="userSpaceOnUse" y1="621.5938" y2="621.5938" id="svg1.SVGID_8_">
	<stop offset="0" style="stop-color:#B3B3B3"/>
	<stop offset="0.0171" style="stop-color:#B6B6B6"/>
	<stop offset="0.235" style="stop-color:#D7D7D7"/>
	<stop offset="0.4168" style="stop-color:#EBEBEB"/>
	<stop offset="0.5394" style="stop-color:#F2F2F2"/>
	<stop offset="0.6579" style="stop-color:#EEEEEE"/>
	<stop offset="0.7724" style="stop-color:#E3E3E3"/>
	<stop offset="0.8853" style="stop-color:#CFCFCF"/>
	<stop offset="0.9965" style="stop-color:#B4B4B4"/>
	<stop offset="1" style="stop-color:#B3B3B3"/>
</linearGradient>
<path fill="url(#svg1.SVGID_8_)" d="M19.625,10.113c10.839,0,19.625-1.875,19.625-4.188l-1.229-2c0,2.168-8.235,3.926-18.396,3.926  c-9.481,0-17.396-1.959-18.396-3.926L0,5.925C0,8.238,8.787,10.113,19.625,10.113z"/>
<linearGradient gradientTransform="matrix(1 0 0 1 -370.2002 -614.5742)" x1="371.4297" x2="408.2217" gradientUnits="userSpaceOnUse" y1="618.5" y2="618.5" id="svg1.SVGID_9_">
	<stop offset="0" style="stop-color:#C9C9C9"/>
	<stop offset="1" style="stop-color:#808080"/>
</linearGradient>
<ellipse rx="18.396" fill="url(#svg1.SVGID_9_)" ry="3.926" cx="19.625" cy="3.926"/>
<path fill="#FFFFFF" d="M31.291,46.792c0,0-4.313,0.578-7.249,0.694  C20.917,47.613,15,47.613,15,47.613l-2.443-10.279l-0.119-2.283l-1.231-1.842L9.789,23.024l-0.082-0.119L9.3,20.715l-1.45-1.44  L5.329,8.793c0,0,5.296,0.882,7.234,1.07s8.375,0.25,8.375,0.25l3,9.875l-0.25,1.313l1.063,2.168l2.312,9.644l-0.375,1.875  l1.627,2.193L31.291,46.792z" enable-background="new    " opacity="0.24"/>
</svg>
      </g>
    </g>
    <g text-rendering="geometricPrecision" stroke-miterlimit="1.45" shape-rendering="geometricPrecision" font-family="sans-serif" transform="matrix(1,0,0,1,-200,-109)" stroke-linecap="butt">
      <text x="506.5" xml:space="preserve" y="468.7752" clip-path="url(#clipPath2)" stroke="none">数据库</text>
      <text x="411.5" xml:space="preserve" y="422.0352" clip-path="url(#clipPath2)" stroke="none">数据库管理系统</text>
      <rect fill="none" x="310" width="287" height="25" y="405" clip-path="url(#clipPath2)"/>
      <text x="235" xml:space="preserve" y="141.6016" clip-path="url(#clipPath2)" stroke="none">遥感信息处理进程</text>
      <rect fill="none" x="215.5" width="135" height="253" y="124" clip-path="url(#clipPath2)"/>
      <text x="275.5" xml:space="preserve" y="356.5352" clip-path="url(#clipPath2)" stroke="none">数据</text>
      <rect fill="none" x="231.5" width="112" height="38" y="333" clip-path="url(#clipPath2)"/>
      <text x="234" xml:space="preserve" y="207.3359" clip-path="url(#clipPath2)" stroke="none">输</text>
      <text x="234" xml:space="preserve" y="221.4688" clip-path="url(#clipPath2)" stroke="none">入</text>
      <text x="234" xml:space="preserve" y="235.6016" clip-path="url(#clipPath2)" stroke="none">线</text>
      <text x="234" xml:space="preserve" y="249.7344" clip-path="url(#clipPath2)" stroke="none">程</text>
      <rect fill="none" x="222.5" width="35" height="132" y="158" clip-path="url(#clipPath2)"/>
      <text x="277" xml:space="preserve" y="193.2031" clip-path="url(#clipPath2)" stroke="none">数</text>
      <text x="277" xml:space="preserve" y="207.3359" clip-path="url(#clipPath2)" stroke="none">据</text>
      <text x="277" xml:space="preserve" y="221.4688" clip-path="url(#clipPath2)" stroke="none">处</text>
      <text x="277" xml:space="preserve" y="235.6016" clip-path="url(#clipPath2)" stroke="none">理</text>
      <text x="277" xml:space="preserve" y="249.7344" clip-path="url(#clipPath2)" stroke="none">线</text>
      <text x="277" xml:space="preserve" y="263.8672" clip-path="url(#clipPath2)" stroke="none">程</text>
      <rect fill="none" x="265.5" width="35" height="132" y="158" clip-path="url(#clipPath2)"/>
      <text x="320" xml:space="preserve" y="207.3359" clip-path="url(#clipPath2)" stroke="none">显</text>
      <text x="320" xml:space="preserve" y="221.4688" clip-path="url(#clipPath2)" stroke="none">示</text>
      <text x="320" xml:space="preserve" y="235.6016" clip-path="url(#clipPath2)" stroke="none">线</text>
      <text x="320" xml:space="preserve" y="249.7344" clip-path="url(#clipPath2)" stroke="none">程</text>
      <rect fill="none" x="308.5" width="35" height="132" y="158" clip-path="url(#clipPath2)"/>
      <text x="423.2061" xml:space="preserve" y="141.6016" clip-path="url(#clipPath2)" stroke="none">业务处理进程1</text>
      <rect fill="none" x="421" width="84" height="253" y="124" clip-path="url(#clipPath2)"/>
      <text x="454" xml:space="preserve" y="355.5352" clip-path="url(#clipPath2)" stroke="none">数据</text>
      <rect fill="none" x="439" width="54" height="38" y="332" clip-path="url(#clipPath2)"/>
      <text x="451.5" xml:space="preserve" y="228.5352" clip-path="url(#clipPath2)" stroke="none">操作</text>
      <rect fill="none" x="446" width="35" height="132" y="158" clip-path="url(#clipPath2)"/>
      <text x="557.2764" xml:space="preserve" y="141.6016" clip-path="url(#clipPath2)" stroke="none">业务处理进程n</text>
      <rect fill="none" x="555" width="84" height="253" y="124" clip-path="url(#clipPath2)"/>
      <text x="588" xml:space="preserve" y="354.5352" clip-path="url(#clipPath2)" stroke="none">数据</text>
      <rect fill="none" x="573" width="54" height="38" y="331" clip-path="url(#clipPath2)"/>
      <text x="585.5" xml:space="preserve" y="227.5352" clip-path="url(#clipPath2)" stroke="none">操作</text>
      <rect fill="none" x="580" width="35" height="132" y="157" clip-path="url(#clipPath2)"/>
    </g>
    <g text-rendering="geometricPrecision" stroke-miterlimit="1.45" shape-rendering="geometricPrecision" transform="matrix(1,0,0,1,-200,-109)" stroke-linecap="butt">
      <path fill="none" d="M461.5 430.0283 L454 440.0283 L460 437.0283 L460 449.71 L454 446.71 L461.5 456.71 L469 446.71 L463 449.71 L463 437.0283 L469 440.0283 L461.5 430.0283 Z" clip-path="url(#clipPath2)"/>
    </g>
    <g text-rendering="geometricPrecision" stroke-miterlimit="1.45" shape-rendering="geometricPrecision" transform="matrix(1,0,0,1,-200,-109)" stroke-linecap="butt">
      <path fill="none" d="M330.091 376.9883 L321.841 387.9883 L328.091 384.8633 L328.091 397.1255 L321.841 394.0005 L330.091 405.0005 L338.341 394.0005 L332.091 397.1255 L332.091 384.8633 L338.341 387.9883 L330.091 376.9883 Z" clip-path="url(#clipPath2)"/>
    </g>
    <g text-rendering="geometricPrecision" stroke-miterlimit="1.45" shape-rendering="geometricPrecision" transform="matrix(1,0,0,1,-200,-109)" stroke-linecap="butt">
      <path fill="none" d="M241.0408 290.0071 L247.1216 325.1017" clip-path="url(#clipPath2)"/>
      <path d="M248.4874 332.9842 L251.3653 320.3068 L246.9509 324.1164 L241.5121 322.014 Z" clip-path="url(#clipPath2)" stroke="none"/>
      <path fill="none" d="M274.8952 333.0244 L281.5214 297.8231" clip-path="url(#clipPath2)"/>
      <path d="M283.0013 289.9612 L275.8678 300.8291 L281.3364 298.8058 L285.6952 302.679 Z" clip-path="url(#clipPath2)" stroke="none"/>
      <path fill="none" d="M289.6531 290.0356 L303.3528 325.5354" clip-path="url(#clipPath2)"/>
      <path d="M306.2331 332.999 L306.5774 320.0035 L302.9928 324.6025 L297.248 323.6038 Z" clip-path="url(#clipPath2)" stroke="none"/>
      <path fill="none" d="M322.6243 333.0044 L327.7699 297.9588" clip-path="url(#clipPath2)"/>
      <path d="M328.9321 290.0437 L322.2419 301.19 L327.6247 298.9482 L332.1358 302.6427 Z" clip-path="url(#clipPath2)" stroke="none"/>
    </g>
    <g text-rendering="geometricPrecision" stroke-miterlimit="1.45" shape-rendering="geometricPrecision" transform="matrix(1,0,0,1,-200,-109)" stroke-linecap="butt">
      <path fill="none" d="M400 240 L400 247 L350.5 247 L350.5 254 L400 254 L400 261 L421 250.5 L400 240 Z" clip-path="url(#clipPath2)"/>
      <text x="373.75" xml:space="preserve" y="285.0352" font-family="sans-serif" clip-path="url(#clipPath2)" stroke="none">数据</text>
    </g>
    <g text-rendering="geometricPrecision" stroke-miterlimit="1.45" shape-rendering="geometricPrecision" transform="matrix(1,0,0,1,-200,-109)" stroke-linecap="butt">
      <path fill="none" d="M470 377.0039 L462.5 387.0039 L468.5 384.0039 L468.5 397.9922 L462.5 394.9922 L470 404.9922 L477.5 394.9922 L471.5 397.9922 L471.5 384.0039 L477.5 387.0039 L470 377.0039 Z" clip-path="url(#clipPath2)"/>
    </g>
    <g text-rendering="geometricPrecision" stroke-miterlimit="1.45" shape-rendering="geometricPrecision" transform="matrix(1,0,0,1,-200,-109)" stroke-linecap="butt">
      <path fill="none" d="M463.8795 297.9999 L464 321.5 L464 324.0049" clip-path="url(#clipPath2)"/>
      <path d="M463.8385 290 L458.9001 302.0255 L463.8846 298.9999 L468.8999 301.9742 Z" clip-path="url(#clipPath2)" stroke="none"/>
      <path d="M464 332.0049 L469 320.0049 L464 323.0049 L459 320.0049 Z" clip-path="url(#clipPath2)" stroke="none"/>
    </g>
    <g text-rendering="geometricPrecision" stroke-miterlimit="1.45" shape-rendering="geometricPrecision" transform="matrix(1,0,0,1,-200,-109)" stroke-linecap="butt">
      <path fill="none" d="M572.4133 377.0212 L564.9133 387.0212 L570.9133 384.0212 L570.9133 397.9766 L564.9133 394.9766 L572.4133 404.9766 L579.9133 394.9766 L573.9133 397.9766 L573.9133 384.0212 L579.9133 387.0212 L572.4133 377.0212 Z" clip-path="url(#clipPath2)"/>
    </g>
    <g text-rendering="geometricPrecision" stroke-miterlimit="1.45" shape-rendering="geometricPrecision" transform="matrix(1,0,0,1,-200,-109)" stroke-linecap="butt">
      <path fill="none" d="M597.8795 296.9999 L598 320.5 L598 323.0049" clip-path="url(#clipPath2)"/>
      <path d="M597.8384 289 L592.9001 301.0255 L597.8846 297.9999 L602.9 300.9742 Z" clip-path="url(#clipPath2)" stroke="none"/>
      <path d="M598 331.0049 L603 319.0049 L598 322.0049 L593 319.0049 Z" clip-path="url(#clipPath2)" stroke="none"/>
    </g>
  </g>
</svg>
